<?xml version="1.0" standalone="no"?>
<!DOCTYPE svg PUBLIC "-//W3C//DTD SVG 20010904//EN"
 "http://www.w3.org/TR/2001/REC-SVG-20010904/DTD/svg10.dtd">
<svg version="1.0" xmlns="http://www.w3.org/2000/svg"
 width="512.000000pt" height="512.000000pt" viewBox="0 0 512.000000 512.000000"
 preserveAspectRatio="xMidYMid meet">

<g transform="translate(0.000000,512.000000) scale(0.100000,-0.100000)"
fill="#000000" stroke="none">
<path d="M1355 5113 c-201 -24 -375 -76 -544 -163 -411 -213 -701 -605 -787
-1065 -18 -94 -19 -171 -19 -1325 0 -1154 1 -1231 19 -1325 115 -617 594
-1096 1211 -1211 94 -18 171 -19 1335 -19 l1235 0 105 23 c463 102 829 377
1039 782 68 130 109 247 143 400 l23 105 0 1235 c0 1164 -1 1241 -19 1335
-107 576 -532 1036 -1093 1185 -182 49 -210 50 -1453 48 -641 0 -1178 -3
-1195 -5z m440 -1108 c159 -17 234 -36 269 -68 18 -17 80 -179 256 -677 128
-360 233 -656 235 -657 1 -2 93 293 205 655 112 361 210 665 219 676 48 55
159 76 448 83 338 8 616 -19 674 -66 22 -18 23 -29 80 -1322 32 -717 58 -1341
59 -1385 l0 -82 -33 -16 c-64 -30 -266 -48 -472 -43 -212 5 -289 20 -305 60
-7 18 -91 1554 -90 1651 0 16 -2 27 -5 25 -2 -3 -111 -358 -240 -790 -304
-1012 -268 -906 -318 -921 -59 -18 -419 -18 -469 0 -21 8 -38 15 -38 17 0 9
-511 1673 -519 1690 -7 15 -10 7 -11 -35 0 -30 -13 -405 -29 -832 -31 -877
-21 -805 -112 -833 -143 -42 -496 -46 -617 -7 -96 31 -102 39 -102 141 0 47
20 666 45 1376 l46 1290 25 22 c49 45 162 60 449 62 125 0 267 -5 350 -14z"/>
</g>
</svg>
